ffmpeg version n8.1 Copyright (c) 2000-2026 the FFmpeg developers
  built with gcc 15.2.1 (GCC) 20260209
  configuration: --prefix=/usr --disable-debug --disable-static --disable-stripping --enable-amf --enable-avisynth --enable-cuda-llvm --enable-lto --enable-fontconfig --enable-frei0r --enable-gmp --enable-gnutls --enable-gpl --enable-ladspa --enable-lcms2 --enable-libaom --enable-libass --enable-libbluray --enable-libbs2b --enable-libdav1d --enable-libdrm --enable-libdvdnav --enable-libdvdread --enable-libfreetype --enable-libfribidi --enable-libglslang --enable-libgsm --enable-libharfbuzz --enable-libiec61883 --enable-libjack --enable-libjxl --enable-libmodplug --enable-libmp3lame --enable-libopencore_amrnb --enable-libopencore_amrwb --enable-libopenjpeg --enable-libopenmpt --enable-libopus --enable-libplacebo --enable-libpulse --enable-librav1e --enable-librsvg --enable-librubberband --enable-libsnappy --enable-libsoxr --enable-libspeex --enable-libsrt --enable-libssh --enable-libsvtav1 --enable-libtheora --enable-libv4l2 --enable-libvidstab --enable-libvmaf --enable-libvorbis --enable-libvpl --enable-libvpx --enable-libwebp --enable-libx264 --enable-libx265 --enable-libxcb --enable-libxml2 --enable-libxvid --enable-libzimg --enable-libzmq --enable-nvdec --enable-nvenc --enable-opencl --enable-opengl --enable-shared --enable-vapoursynth --enable-version3 --enable-vulkan
  libavutil      60. 26.100 / 60. 26.100
  libavcodec     62. 28.100 / 62. 28.100
  libavformat    62. 12.100 / 62. 12.100
  libavdevice    62.  3.100 / 62.  3.100
  libavfilter    11. 14.100 / 11. 14.100
  libswscale      9.  5.100 /  9.  5.100
  libswresample   6.  3.100 /  6.  3.100
[in#0/x11grab @ 0x564a31784d80] Stream #0: not enough frames to estimate rate; consider increasing probesize
Input #0, x11grab, from ':0.0':
  Duration: N/A, start: 1776405516.873867, bitrate: 2071528 kb/s
  Stream #0:0: Video: rawvideo (BGR[0] / 0x524742), bgr0, 1800x1200, 2071528 kb/s, 29.97 fps, 1000k tbr, 1000k tbn, start 1776405516.873867
Stream mapping:
  Stream #0:0 -> #0:0 (rawvideo (native) -> h264 (libx264))
Press [q] to stop, [?] for help
[libx264 @ 0x564a3178ef80] using cpu capabilities: MMX2 SSE2Fast LZCNT SSSE3 SSE4.2
[libx264 @ 0x564a3178ef80] profile Constrained Baseline, level 4.2, 4:2:0, 8-bit
[libx264 @ 0x564a3178ef80] 264 - core 165 r3222 b35605a - H.264/MPEG-4 AVC codec - Copyleft 2003-2025 - http://www.videolan.org/x264.html - options: cabac=0 ref=1 deblock=0:0:0 analyse=0:0 me=dia subme=0 psy=1 psy_rd=1.00:0.00 mixed_ref=0 me_range=16 chroma_me=1 trellis=0 8x8dct=0 cqm=0 deadzone=21,11 fast_pskip=1 chroma_qp_offset=0 threads=6 lookahead_threads=1 sliced_threads=0 nr=0 decimate=1 interlaced=0 bluray_compat=0 constrained_intra=0 bframes=0 weightp=0 keyint=250 keyint_min=25 scenecut=0 intra_refresh=0 rc=crf mbtree=0 crf=18.0 qcomp=0.60 qpmin=0 qpmax=69 qpstep=4 ip_ratio=1.40 aq=0
Output #0, mp4, to 'hermes_clipper_demo.mp4':
  Metadata:
    encoder         : Lavf62.12.100
  Stream #0:0: Video: h264 (avc1 / 0x31637661), yuv420p(tv, progressive), 1800x1200, q=2-31, 29.97 fps, 30k tbn
    Metadata:
      encoder         : Lavc62.28.100 libx264
    Side data:
      CPB properties: bitrate max/min/avg: 0/0/0 buffer size: 0 vbv_delay: N/A
frame=    5 fps=0.0 q=12.0 size=     256KiB time=00:00:00.26 bitrate=7857.9kbits/s dup=0 drop=2 speed=0.532x elapsed=0:00:00.50    frame=   22 fps= 22 q=8.0 size=     256KiB time=00:00:00.80 bitrate=2619.3kbits/s dup=0 drop=2 speed=0.797x elapsed=0:00:01.00    frame=   37 fps= 25 q=8.0 size=     512KiB time=00:00:01.30 bitrate=3223.5kbits/s dup=0 drop=2 speed=0.865x elapsed=0:00:01.50    frame=   52 fps= 26 q=8.0 size=     512KiB time=00:00:01.80 bitrate=2328.1kbits/s dup=0 drop=2 speed=0.898x elapsed=0:00:02.00    frame=   67 fps= 27 q=8.0 size=     512KiB time=00:00:02.30 bitrate=1822.0kbits/s dup=0 drop=2 speed=0.919x elapsed=0:00:02.50    frame=   82 fps= 27 q=8.0 size=     512KiB time=00:00:02.80 bitrate=1496.6kbits/s dup=0 drop=2 speed=0.932x elapsed=0:00:03.00    frame=   97 fps= 28 q=8.0 size=     512KiB time=00:00:03.30 bitrate=1269.8kbits/s dup=0 drop=2 speed=0.942x elapsed=0:00:03.50    frame=  112 fps= 28 q=8.0 size=     512KiB time=00:00:03.80 bitrate=1102.8kbits/s dup=0 drop=2 speed=0.949x elapsed=0:00:04.00    frame=  127 fps= 28 q=8.0 size=     512KiB time=00:00:04.30 bitrate= 974.5kbits/s dup=0 drop=2 speed=0.955x elapsed=0:00:04.50    frame=  142 fps= 28 q=8.0 size=     512KiB time=00:00:04.80 bitrate= 873.0kbits/s dup=0 drop=2 speed=0.959x elapsed=0:00:05.00    frame=  159 fps= 28 q=8.0 size=     512KiB time=00:00:05.37 bitrate= 780.8kbits/s dup=0 drop=2 speed=0.945x elapsed=0:00:05.68    frame=  176 fps= 28 q=8.0 size=     512KiB time=00:00:05.93 bitrate= 706.3kbits/s dup=0 drop=2 speed=0.958x elapsed=0:00:06.20    frame=  190 fps= 28 q=9.0 size=     512KiB time=00:00:06.40 bitrate= 654.8kbits/s dup=0 drop=2 speed=0.956x elapsed=0:00:06.70    frame=  201 fps= 28 q=8.0 size=     512KiB time=00:00:06.77 bitrate= 619.3kbits/s dup=0 drop=2 speed=0.94x elapsed=0:00:07.20    frame=  223 fps= 29 q=8.0 size=     512KiB time=00:00:07.50 bitrate= 558.7kbits/s dup=0 drop=2 speed=0.975x elapsed=0:00:07.70    frame=  238 fps= 29 q=8.0 size=     512KiB time=00:00:08.00 bitrate= 523.8kbits/s dup=0 drop=2 speed=0.975x elapsed=0:00:08.21    frame=  253 fps= 29 q=8.0 size=     512KiB time=00:00:08.50 bitrate= 493.0kbits/s dup=0 drop=2 speed=0.977x elapsed=0:00:08.71    frame=  268 fps= 29 q=8.0 size=     512KiB time=00:00:09.00 bitrate= 465.6kbits/s dup=0 drop=2 speed=0.978x elapsed=0:00:09.21    frame=  283 fps= 29 q=8.0 size=     512KiB time=00:00:09.50 bitrate= 441.1kbits/s dup=0 drop=2 speed=0.979x elapsed=0:00:09.71    frame=  298 fps= 29 q=8.0 size=     512KiB time=00:00:10.01 bitrate= 419.0kbits/s dup=0 drop=2 speed=0.98x elapsed=0:00:10.21    frame=  313 fps= 29 q=8.0 size=     512KiB time=00:00:10.51 bitrate= 399.1kbits/s dup=0 drop=2 speed=0.981x elapsed=0:00:10.71    frame=  328 fps= 29 q=8.0 size=     512KiB time=00:00:11.01 bitrate= 381.0kbits/s dup=0 drop=2 speed=0.982x elapsed=0:00:11.21    frame=  343 fps= 29 q=8.0 size=     512KiB time=00:00:11.51 bitrate= 364.4kbits/s dup=0 drop=2 speed=0.983x elapsed=0:00:11.71    frame=  358 fps= 29 q=8.0 size=     512KiB time=00:00:12.01 bitrate= 349.2kbits/s dup=0 drop=2 speed=0.983x elapsed=0:00:12.21    frame=  373 fps= 29 q=8.0 size=     512KiB time=00:00:12.51 bitrate= 335.2kbits/s dup=0 drop=2 speed=0.984x elapsed=0:00:12.71    frame=  388 fps= 29 q=12.0 size=     512KiB time=00:00:13.01 bitrate= 322.3kbits/s dup=0 drop=2 speed=0.984x elapsed=0:00:13.21    frame=  403 fps= 29 q=8.0 size=     768KiB time=00:00:13.51 bitrate= 465.6kbits/s dup=0 drop=2 speed=0.985x elapsed=0:00:13.71    frame=  418 fps= 29 q=8.0 size=     768KiB time=00:00:14.04 bitrate= 447.9kbits/s dup=0 drop=2 speed=0.988x elapsed=0:00:14.21    frame=  433 fps= 29 q=8.0 size=     768KiB time=00:00:14.51 bitrate= 433.5kbits/s dup=0 drop=2 speed=0.986x elapsed=0:00:14.72    frame=  449 fps= 29 q=8.0 size=     768KiB time=00:00:15.04 bitrate= 418.1kbits/s dup=0 drop=2 speed=0.988x elapsed=0:00:15.22    frame=  464 fps= 30 q=8.0 size=     768KiB time=00:00:15.54 bitrate= 404.6kbits/s dup=0 drop=2 speed=0.989x elapsed=0:00:15.72    frame=  479 fps= 30 q=8.0 size=     768KiB time=00:00:16.04 bitrate= 392.0kbits/s dup=0 drop=2 speed=0.989x elapsed=0:00:16.22    frame=  493 fps= 29 q=8.0 size=     768KiB time=00:00:16.51 bitrate= 380.9kbits/s dup=0 drop=2 speed=0.987x elapsed=0:00:16.72    frame=  508 fps= 29 q=21.0 size=     768KiB time=00:00:17.01 bitrate= 369.7kbits/s dup=0 drop=2 speed=0.988x elapsed=0:00:17.22    frame=  523 fps= 30 q=8.0 size=    1792KiB time=00:00:17.51 bitrate= 838.0kbits/s dup=0 drop=2 speed=0.988x elapsed=0:00:17.72    frame=  538 fps= 30 q=8.0 size=    2048KiB time=00:00:18.01 bitrate= 931.2kbits/s dup=0 drop=2 speed=0.988x elapsed=0:00:18.22    frame=  552 fps= 29 q=8.0 size=    2048KiB time=00:00:18.48 bitrate= 907.6kbits/s dup=0 drop=2 speed=0.987x elapsed=0:00:18.73    frame=  568 fps= 30 q=9.0 size=    2304KiB time=00:00:19.01 bitrate= 992.4kbits/s dup=0 drop=2 speed=0.989x elapsed=0:00:19.23    frame=  584 fps= 30 q=9.0 size=    2560KiB time=00:00:19.55 bitrate=1072.6kbits/s dup=0 drop=2 speed=0.991x elapsed=0:00:19.73    frame=  598 fps= 30 q=8.0 size=    2560KiB time=00:00:20.05 bitrate=1045.8kbits/s dup=0 drop=2 speed=0.991x elapsed=0:00:20.23    frame=  613 fps= 30 q=8.0 size=    2560KiB time=00:00:20.52 bitrate=1022.0kbits/s dup=0 drop=2 speed=0.99x elapsed=0:00:20.73    frame=  629 fps= 30 q=8.0 size=    2560KiB time=00:00:21.05 bitrate= 996.1kbits/s dup=0 drop=2 speed=0.992x elapsed=0:00:21.23    frame=  643 fps= 30 q=8.0 size=    2560KiB time=00:00:21.52 bitrate= 974.5kbits/s dup=0 drop=2 speed=0.99x elapsed=0:00:21.73    frame=  658 fps= 30 q=8.0 size=    2560KiB time=00:00:22.05 bitrate= 950.9kbits/s dup=0 drop=2 speed=0.992x elapsed=0:00:22.23    frame=  673 fps= 30 q=8.0 size=    2560KiB time=00:00:22.52 bitrate= 931.2kbits/s dup=0 drop=2 speed=0.991x elapsed=0:00:22.73    frame=  688 fps= 30 q=8.0 size=    2560KiB time=00:00:23.02 bitrate= 910.9kbits/s dup=0 drop=2 speed=0.991x elapsed=0:00:23.23    frame=  702 fps= 30 q=8.0 size=    2560KiB time=00:00:23.49 bitrate= 892.8kbits/s dup=0 drop=2 speed=0.99x elapsed=0:00:23.73    frame=  718 fps= 30 q=8.0 size=    2560KiB time=00:00:24.02 bitrate= 873.0kbits/s dup=0 drop=2 speed=0.991x elapsed=0:00:24.23    frame=  732 fps= 30 q=8.0 size=    2560KiB time=00:00:24.49 bitrate= 856.3kbits/s dup=0 drop=2 speed=0.99x elapsed=0:00:24.74    frame=  748 fps= 30 q=10.0 size=    2560KiB time=00:00:25.02 bitrate= 838.0kbits/s dup=0 drop=2 speed=0.991x elapsed=0:00:25.24    frame=  763 fps= 30 q=8.0 size=    2560KiB time=00:00:25.52 bitrate= 821.6kbits/s dup=0 drop=2 speed=0.992x elapsed=0:00:25.74    frame=  776 fps= 30 q=10.0 size=    2560KiB time=00:00:25.95 bitrate= 807.9kbits/s dup=0 drop=2 speed=0.989x elapsed=0:00:26.24    frame=  787 fps= 29 q=8.0 size=    2816KiB time=00:00:26.32 bitrate= 876.3kbits/s dup=0 drop=2 speed=0.984x elapsed=0:00:26.74    frame=  799 fps= 29 q=8.0 size=    2816KiB time=00:00:26.72 bitrate= 863.1kbits/s dup=0 drop=2 speed=0.981x elapsed=0:00:27.24    frame=  821 fps= 30 q=8.0 size=    2816KiB time=00:00:27.46 bitrate= 840.1kbits/s dup=0 drop=2 speed=0.99x elapsed=0:00:27.74    frame=  837 fps= 30 q=8.0 size=    2816KiB time=00:00:27.99 bitrate= 824.1kbits/s dup=0 drop=2 speed=0.991x elapsed=0:00:28.24    frame=  853 fps= 30 q=8.0 size=    2816KiB time=00:00:28.52 bitrate= 808.6kbits/s dup=0 drop=2 speed=0.993x elapsed=0:00:28.74    frame=  868 fps= 30 q=8.0 size=    2816KiB time=00:00:29.06 bitrate= 793.8kbits/s dup=0 drop=2 speed=0.994x elapsed=0:00:29.24    frame=  883 fps= 30 q=8.0 size=    2816KiB time=00:00:29.52 bitrate= 781.2kbits/s dup=0 drop=2 speed=0.993x elapsed=0:00:29.74    frame=  898 fps= 30 q=8.0 size=    2816KiB time=00:00:30.03 bitrate= 768.2kbits/s dup=0 drop=2 speed=0.993x elapsed=0:00:30.24    frame=  913 fps= 30 q=8.0 size=    2816KiB time=00:00:30.53 bitrate= 755.6kbits/s dup=0 drop=2 speed=0.993x elapsed=0:00:30.74    frame=  929 fps= 30 q=8.0 size=    2816KiB time=00:00:31.06 bitrate= 742.6kbits/s dup=0 drop=2 speed=0.994x elapsed=0:00:31.24    frame=  943 fps= 30 q=8.0 size=    2816KiB time=00:00:31.53 bitrate= 731.6kbits/s dup=0 drop=2 speed=0.993x elapsed=0:00:31.74    frame=  958 fps= 30 q=8.0 size=    2816KiB time=00:00:32.03 bitrate= 720.2kbits/s dup=0 drop=2 speed=0.993x elapsed=0:00:32.24    frame=  973 fps= 30 q=8.0 size=    2816KiB time=00:00:32.53 bitrate= 709.1kbits/s dup=0 drop=2 speed=0.993x elapsed=0:00:32.74    frame=  989 fps= 30 q=8.0 size=    2816KiB time=00:00:33.06 bitrate= 697.7kbits/s dup=0 drop=2 speed=0.994x elapsed=0:00:33.24    frame= 1003 fps= 30 q=8.0 size=    2816KiB time=00:00:33.53 bitrate= 687.9kbits/s dup=0 drop=2 speed=0.994x elapsed=0:00:33.75    frame= 1018 fps= 30 q=8.0 size=    2816KiB time=00:00:34.06 bitrate= 677.2kbits/s dup=0 drop=2 speed=0.995x elapsed=0:00:34.25    frame= 1033 fps= 30 q=8.0 size=    2816KiB time=00:00:34.53 bitrate= 668.0kbits/s dup=0 drop=2 speed=0.994x elapsed=0:00:34.75    frame= 1049 fps= 30 q=8.0 size=    2816KiB time=00:00:35.06 bitrate= 657.8kbits/s dup=0 drop=2 speed=0.995x elapsed=0:00:35.25    frame= 1064 fps= 30 q=8.0 size=    2816KiB time=00:00:35.56 bitrate= 648.6kbits/s dup=0 drop=2 speed=0.995x elapsed=0:00:35.75    frame= 1078 fps= 30 q=8.0 size=    2816KiB time=00:00:36.03 bitrate= 640.2kbits/s dup=0 drop=2 speed=0.994x elapsed=0:00:36.25    frame= 1092 fps= 30 q=8.0 size=    3072KiB time=00:00:36.50 bitrate= 689.4kbits/s dup=0 drop=2 speed=0.993x elapsed=0:00:36.75    frame= 1109 fps= 30 q=8.0 size=    3072KiB time=00:00:37.07 bitrate= 678.9kbits/s dup=0 drop=2 speed=0.995x elapsed=0:00:37.25    frame= 1123 fps= 30 q=9.0 size=    3072KiB time=00:00:37.53 bitrate= 670.4kbits/s dup=0 drop=2 speed=0.994x elapsed=0:00:37.75    frame= 1138 fps= 30 q=8.0 size=    3072KiB time=00:00:38.03 bitrate= 661.6kbits/s dup=0 drop=2 speed=0.994x elapsed=0:00:38.27    frame= 1153 fps= 30 q=8.0 size=    3072KiB time=00:00:38.53 bitrate= 653.0kbits/s dup=0 drop=2 speed=0.993x elapsed=0:00:38.80    frame= 1170 fps= 30 q=8.0 size=    3072KiB time=00:00:39.10 bitrate= 643.5kbits/s dup=0 drop=2 speed=0.995x elapsed=0:00:39.30    frame= 1185 fps= 30 q=8.0 size=    3072KiB time=00:00:39.60 bitrate= 635.4kbits/s dup=0 drop=2 speed=0.995x elapsed=0:00:39.81    frame= 1200 fps= 30 q=8.0 size=    3072KiB time=00:00:40.10 bitrate= 627.5kbits/s dup=0 drop=2 speed=0.995x elapsed=0:00:40.31    frame= 1214 fps= 30 q=8.0 size=    3072KiB time=00:00:40.57 bitrate= 620.3kbits/s dup=0 drop=2 speed=0.994x elapsed=0:00:40.81    frame= 1230 fps= 30 q=8.0 size=    3072KiB time=00:00:41.10 bitrate= 612.2kbits/s dup=0 drop=2 speed=0.995x elapsed=0:00:41.31    frame= 1245 fps= 30 q=8.0 size=    3072KiB time=00:00:41.60 bitrate= 604.8kbits/s dup=0 drop=2 speed=0.995x elapsed=0:00:41.81    frame= 1260 fps= 30 q=8.0 size=    3072KiB time=00:00:42.10 bitrate= 597.6kbits/s dup=0 drop=2 speed=0.995x elapsed=0:00:42.31    frame= 1273 fps= 30 q=8.0 size=    3072KiB time=00:00:42.54 bitrate= 591.6kbits/s dup=0 drop=2 speed=0.994x elapsed=0:00:42.81    frame= 1290 fps= 30 q=8.0 size=    3072KiB time=00:00:43.10 bitrate= 583.8kbits/s dup=0 drop=2 speed=0.995x elapsed=0:00:43.31    frame= 1305 fps= 30 q=8.0 size=    3072KiB time=00:00:43.61 bitrate= 577.1kbits/s dup=0 drop=2 speed=0.995x elapsed=0:00:43.81    frame= 1320 fps= 30 q=8.0 size=    3072KiB time=00:00:44.11 bitrate= 570.5kbits/s dup=0 drop=2 speed=0.995x elapsed=0:00:44.31    frame= 1335 fps= 30 q=9.0 size=    3072KiB time=00:00:44.61 bitrate= 564.1kbits/s dup=0 drop=2 speed=0.995x elapsed=0:00:44.83    frame= 1350 fps= 30 q=8.0 size=    3328KiB time=00:00:45.11 bitrate= 604.4kbits/s dup=0 drop=2 speed=0.995x elapsed=0:00:45.33    frame= 1366 fps= 30 q=8.0 size=    3328KiB time=00:00:45.64 bitrate= 597.3kbits/s dup=0 drop=2 speed=0.996x elapsed=0:00:45.83    frame= 1380 fps= 30 q=8.0 size=    3328KiB time=00:00:46.11 bitrate= 591.2kbits/s dup=0 drop=2 speed=0.995x elapsed=0:00:46.33    frame= 1395 fps= 30 q=8.0 size=    3328KiB time=00:00:46.61 bitrate= 584.9kbits/s dup=0 drop=2 speed=0.995x elapsed=0:00:46.83    frame= 1410 fps= 30 q=9.0 size=    3328KiB time=00:00:47.11 bitrate= 578.7kbits/s dup=0 drop=2 speed=0.995x elapsed=0:00:47.33    frame= 1425 fps= 30 q=8.0 size=    3328KiB time=00:00:47.61 bitrate= 572.6kbits/s dup=0 drop=2 speed=0.995x elapsed=0:00:47.83    frame= 1440 fps= 30 q=8.0 size=    3328KiB time=00:00:48.11 bitrate= 566.6kbits/s dup=0 drop=2 speed=0.995x elapsed=0:00:48.33    frame= 1453 fps= 30 q=8.0 size=    3328KiB time=00:00:48.54 bitrate= 561.6kbits/s dup=0 drop=2 speed=0.994x elapsed=0:00:48.83    frame= 1466 fps= 30 q=8.0 size=    3328KiB time=00:00:48.98 bitrate= 556.6kbits/s dup=0 drop=2 speed=0.993x elapsed=0:00:49.33    frame= 1480 fps= 30 q=15.0 size=    3328KiB time=00:00:49.44 bitrate= 551.3kbits/s dup=0 drop=2 speed=0.992x elapsed=0:00:49.83    frame= 1491 fps= 30 q=12.0 size=    3584KiB time=00:00:49.88 bitrate= 588.6kbits/s dup=0 drop=4 speed=0.991x elapsed=0:00:50.33    frame= 1503 fps= 30 q=16.0 size=    4096KiB time=00:00:50.28 bitrate= 667.3kbits/s dup=0 drop=4 speed=0.989x elapsed=0:00:50.83    frame= 1516 fps= 30 q=11.0 size=    4864KiB time=00:00:50.71 bitrate= 785.7kbits/s dup=0 drop=4 speed=0.987x elapsed=0:00:51.36    frame= 1529 fps= 29 q=8.0 size=    4864KiB time=00:00:51.15 bitrate= 779.0kbits/s dup=0 drop=4 speed=0.986x elapsed=0:00:51.88    frame= 1539 fps= 29 q=16.0 size=    4864KiB time=00:00:51.48 bitrate= 773.9kbits/s dup=0 drop=4 speed=0.983x elapsed=0:00:52.38    frame= 1547 fps= 29 q=8.0 size=    5120KiB time=00:00:51.78 bitrate= 810.0kbits/s dup=0 drop=4 speed=0.979x elapsed=0:00:52.88    frame= 1560 fps= 29 q=6.0 size=    5120KiB time=00:00:52.48 bitrate= 799.1kbits/s dup=0 drop=4 speed=0.983x elapsed=0:00:53.39    frame= 1571 fps= 29 q=8.0 size=    5120KiB time=00:00:53.11 bitrate= 789.6kbits/s dup=0 drop=4 speed=0.986x elapsed=0:00:53.89    frame= 1584 fps= 29 q=15.0 size=    5120KiB time=00:00:53.72 bitrate= 780.8kbits/s dup=0 drop=4 speed=0.988x elapsed=0:00:54.39    frame= 1597 fps= 29 q=8.0 size=    5376KiB time=00:00:54.22 bitrate= 812.2kbits/s dup=0 drop=5 speed=0.988x elapsed=0:00:54.89    frame= 1604 fps= 29 q=8.0 size=    5376KiB time=00:00:54.48 bitrate= 808.3kbits/s dup=0 drop=6 speed=0.984x elapsed=0:00:55.39    frame= 1613 fps= 29 q=6.0 size=    5376KiB time=00:00:54.78 bitrate= 803.8kbits/s dup=0 drop=6 speed=0.98x elapsed=0:00:55.89    frame= 1630 fps= 29 q=8.0 size=    5376KiB time=00:00:55.72 bitrate= 790.4kbits/s dup=0 drop=6 speed=0.988x elapsed=0:00:56.39    frame= 1645 fps= 29 q=8.0 size=    5376KiB time=00:00:56.32 bitrate= 781.9kbits/s dup=0 drop=6 speed=0.99x elapsed=0:00:56.89    frame= 1659 fps= 29 q=8.0 size=    5376KiB time=00:00:56.82 bitrate= 775.0kbits/s dup=0 drop=9 speed=0.99x elapsed=0:00:57.39    frame= 1677 fps= 29 q=8.0 size=    5376KiB time=00:00:57.42 bitrate= 766.9kbits/s dup=0 drop=11 speed=0.992x elapsed=0:00:57.89    frame= 1694 fps= 29 q=8.0 size=    5376KiB time=00:00:57.99 bitrate= 759.4kbits/s dup=0 drop=17 speed=0.993x elapsed=0:00:58.39    frame= 1705 fps= 29 q=8.0 size=    5376KiB time=00:00:58.35 bitrate= 754.7kbits/s dup=0 drop=25 speed=0.991x elapsed=0:00:58.89    frame= 1723 fps= 29 q=8.0 size=    5376KiB time=00:00:58.92 bitrate= 747.4kbits/s dup=0 drop=29 speed=0.992x elapsed=0:00:59.40    frame= 1737 fps= 29 q=8.0 size=    5376KiB time=00:00:59.42 bitrate= 741.1kbits/s dup=0 drop=34 speed=0.992x elapsed=0:00:59.90    frame= 1748 fps= 29 q=14.0 size=    5376KiB time=00:00:59.79 bitrate= 736.5kbits/s dup=0 drop=37 speed=0.99x elapsed=0:01:00.40    frame= 1760 fps= 29 q=8.0 size=    5632KiB time=00:01:00.16 bitrate= 766.9kbits/s dup=0 drop=38 speed=0.988x elapsed=0:01:00.90    frame= 1776 fps= 29 q=7.0 size=    5632KiB time=00:01:00.76 bitrate= 759.3kbits/s dup=0 drop=38 speed=0.99x elapsed=0:01:01.40    frame= 1792 fps= 29 q=8.0 size=    5632KiB time=00:01:01.39 bitrate= 751.5kbits/s dup=0 drop=39 speed=0.992x elapsed=0:01:01.90    frame= 1804 fps= 29 q=8.0 size=    5632KiB time=00:01:01.79 bitrate= 746.6kbits/s dup=0 drop=41 speed=0.99x elapsed=0:01:02.40    frame= 1817 fps= 29 q=8.0 size=    5632KiB time=00:01:02.22 bitrate= 741.4kbits/s dup=0 drop=41 speed=0.989x elapsed=0:01:02.90    frame= 1835 fps= 29 q=7.0 size=    5632KiB time=00:01:02.89 bitrate= 733.6kbits/s dup=0 drop=41 speed=0.992x elapsed=0:01:03.40    frame= 1850 fps= 29 q=8.0 size=    5632KiB time=00:01:03.43 bitrate= 727.4kbits/s dup=0 drop=47 speed=0.993x elapsed=0:01:03.90    frame= 1871 fps= 29 q=8.0 size=    5632KiB time=00:01:04.09 bitrate= 719.8kbits/s dup=0 drop=50 speed=0.995x elapsed=0:01:04.40    frame= 1884 fps= 29 q=8.0 size=    5632KiB time=00:01:04.53 bitrate= 715.0kbits/s dup=0 drop=50 speed=0.994x elapsed=0:01:04.90    frame= 1899 fps= 29 q=8.0 size=    5632KiB time=00:01:05.03 bitrate= 709.5kbits/s dup=0 drop=50 speed=0.994x elapsed=0:01:05.40    frame= 1916 fps= 29 q=8.0 size=    5632KiB time=00:01:05.59 bitrate= 703.3kbits/s dup=0 drop=50 speed=0.995x elapsed=0:01:05.90    frame= 1934 fps= 29 q=8.0 size=    5632KiB time=00:01:06.19 bitrate= 697.0kbits/s dup=0 drop=50 speed=0.997x elapsed=0:01:06.41    frame= 1949 fps= 29 q=8.0 size=    5632KiB time=00:01:06.69 bitrate= 691.7kbits/s dup=0 drop=50 speed=0.997x elapsed=0:01:06.91    frame= 1964 fps= 29 q=8.0 size=    5632KiB time=00:01:07.20 bitrate= 686.6kbits/s dup=0 drop=50 speed=0.997x elapsed=0:01:07.41    frame= 1980 fps= 29 q=8.0 size=    5632KiB time=00:01:07.73 bitrate= 681.2kbits/s dup=0 drop=50 speed=0.997x elapsed=0:01:07.91    frame= 1995 fps= 29 q=8.0 size=    5632KiB time=00:01:08.23 bitrate= 676.2kbits/s dup=0 drop=50 speed=0.997x elapsed=0:01:08.41    frame= 2010 fps= 29 q=8.0 size=    5632KiB time=00:01:08.73 bitrate= 671.2kbits/s dup=0 drop=50 speed=0.997x elapsed=0:01:08.91    frame= 2025 fps= 29 q=8.0 size=    5632KiB time=00:01:09.23 bitrate= 666.4kbits/s dup=0 drop=50 speed=0.997x elapsed=0:01:09.41    frame= 2039 fps= 29 q=8.0 size=    5632KiB time=00:01:09.70 bitrate= 661.9kbits/s dup=0 drop=50 speed=0.997x elapsed=0:01:09.91    frame= 2055 fps= 29 q=8.0 size=    5632KiB time=00:01:10.23 bitrate= 656.9kbits/s dup=0 drop=50 speed=0.998x elapsed=0:01:10.41    frame= 2070 fps= 29 q=8.0 size=    5632KiB time=00:01:10.73 bitrate= 652.2kbits/s dup=0 drop=50 speed=0.998x elapsed=0:01:10.91    frame= 2085 fps= 29 q=8.0 size=    5632KiB time=00:01:11.23 bitrate= 647.7kbits/s dup=0 drop=50 speed=0.998x elapsed=0:01:11.41    frame= 2099 fps= 29 q=8.0 size=    5632KiB time=00:01:11.73 bitrate= 643.1kbits/s dup=0 drop=50 speed=0.998x elapsed=0:01:11.91    frame= 2115 fps= 29 q=8.0 size=    5632KiB time=00:01:12.23 bitrate= 638.7kbits/s dup=0 drop=50 speed=0.998x elapsed=0:01:12.41    frame= 2129 fps= 29 q=8.0 size=    5632KiB time=00:01:12.70 bitrate= 634.6kbits/s dup=0 drop=50 speed=0.997x elapsed=0:01:12.91    frame= 2145 fps= 29 q=8.0 size=    5632KiB time=00:01:13.23 bitrate= 630.0kbits/s dup=0 drop=50 speed=0.998x elapsed=0:01:13.41    frame= 2159 fps= 29 q=8.0 size=    5632KiB time=00:01:13.70 bitrate= 626.0kbits/s dup=0 drop=50 speed=0.997x elapsed=0:01:13.91    frame= 2174 fps= 29 q=8.0 size=    5632KiB time=00:01:14.20 bitrate= 621.7kbits/s dup=0 drop=50 speed=0.997x elapsed=0:01:14.41    frame= 2189 fps= 29 q=8.0 size=    5632KiB time=00:01:14.70 bitrate= 617.6kbits/s dup=0 drop=50 speed=0.997x elapsed=0:01:14.91    frame= 2204 fps= 29 q=18.0 size=    5632KiB time=00:01:15.20 bitrate= 613.5kbits/s dup=0 drop=50 speed=0.997x elapsed=0:01:15.41    frame= 2219 fps= 29 q=8.0 size=    6144KiB time=00:01:15.70 bitrate= 664.8kbits/s dup=0 drop=50 speed=0.997x elapsed=0:01:15.91    frame= 2234 fps= 29 q=8.0 size=    6400KiB time=00:01:16.20 bitrate= 688.0kbits/s dup=0 drop=50 speed=0.997x elapsed=0:01:16.42    frame= 2250 fps= 29 q=12.0 size=    6400KiB time=00:01:16.70 bitrate= 683.5kbits/s dup=0 drop=50 speed=0.997x elapsed=0:01:16.92    frame= 2264 fps= 29 q=8.0 size=    6656KiB time=00:01:17.21 bitrate= 706.2kbits/s dup=0 drop=50 speed=0.997x elapsed=0:01:17.42    frame= 2279 fps= 29 q=8.0 size=    6656KiB time=00:01:17.71 bitrate= 701.7kbits/s dup=0 drop=50 speed=0.997x elapsed=0:01:17.92    frame= 2294 fps= 29 q=9.0 size=    6656KiB time=00:01:18.21 bitrate= 697.2kbits/s dup=0 drop=50 speed=0.997x elapsed=0:01:18.42    frame= 2310 fps= 29 q=8.0 size=    6656KiB time=00:01:18.74 bitrate= 692.4kbits/s dup=0 drop=50 speed=0.998x elapsed=0:01:18.92    frame= 2325 fps= 29 q=8.0 size=    6656KiB time=00:01:19.24 bitrate= 688.1kbits/s dup=0 drop=50 speed=0.998x elapsed=0:01:19.42    frame= 2340 fps= 29 q=8.0 size=    6656KiB time=00:01:19.74 bitrate= 683.7kbits/s dup=0 drop=50 speed=0.998x elapsed=0:01:19.92    frame= 2355 fps= 29 q=8.0 size=    6656KiB time=00:01:20.24 bitrate= 679.5kbits/s dup=0 drop=50 speed=0.998x elapsed=0:01:20.42    frame= 2370 fps= 29 q=8.0 size=    6656KiB time=00:01:20.74 bitrate= 675.3kbits/s dup=0 drop=50 speed=0.998x elapsed=0:01:20.92    frame= 2384 fps= 29 q=8.0 size=    6656KiB time=00:01:21.21 bitrate= 671.4kbits/s dup=0 drop=50 speed=0.997x elapsed=0:01:21.42    frame= 2399 fps= 29 q=8.0 size=    6656KiB time=00:01:21.71 bitrate= 667.3kbits/s dup=0 drop=50 speed=0.997x elapsed=0:01:21.92    frame= 2414 fps= 29 q=8.0 size=    6912KiB time=00:01:22.21 bitrate= 688.7kbits/s dup=0 drop=50 speed=0.997x elapsed=0:01:22.42    frame= 2429 fps= 29 q=8.0 size=    6912KiB time=00:01:22.71 bitrate= 684.6kbits/s dup=0 drop=50 speed=0.997x elapsed=0:01:22.92    frame= 2445 fps= 29 q=8.0 size=    6912KiB time=00:01:23.24 bitrate= 680.2kbits/s dup=0 drop=50 speed=0.998x elapsed=0:01:23.42    frame= 2459 fps= 29 q=8.0 size=    6912KiB time=00:01:23.71 bitrate= 676.4kbits/s dup=0 drop=50 speed=0.998x elapsed=0:01:23.92    frame= 2474 fps= 29 q=8.0 size=    6912KiB time=00:01:24.21 bitrate= 672.3kbits/s dup=0 drop=50 speed=0.998x elapsed=0:01:24.42    frame= 2489 fps= 29 q=8.0 size=    6912KiB time=00:01:24.71 bitrate= 668.4kbits/s dup=0 drop=50 speed=0.998x elapsed=0:01:24.92    frame= 2504 fps= 29 q=9.0 size=    7424KiB time=00:01:25.21 bitrate= 713.7kbits/s dup=0 drop=50 speed=0.998x elapsed=0:01:25.42    frame= 2519 fps= 29 q=8.0 size=    7424KiB time=00:01:25.71 bitrate= 709.5kbits/s dup=0 drop=50 speed=0.998x elapsed=0:01:25.92    frame= 2534 fps= 29 q=8.0 size=    7424KiB time=00:01:26.21 bitrate= 705.4kbits/s dup=0 drop=50 speed=0.998x elapsed=0:01:26.42    frame= 2549 fps= 29 q=8.0 size=    7424KiB time=00:01:26.71 bitrate= 701.3kbits/s dup=0 drop=50 speed=0.998x elapsed=0:01:26.92    frame= 2564 fps= 29 q=8.0 size=    7424KiB time=00:01:27.22 bitrate= 697.3kbits/s dup=0 drop=50 speed=0.998x elapsed=0:01:27.42    frame= 2579 fps= 29 q=8.0 size=    7424KiB time=00:01:27.72 bitrate= 693.3kbits/s dup=0 drop=50 speed=0.998x elapsed=0:01:27.93    frame= 2594 fps= 29 q=8.0 size=    7424KiB time=00:01:28.22 bitrate= 689.4kbits/s dup=0 drop=50 speed=0.998x elapsed=0:01:28.43    frame= 2609 fps= 29 q=8.0 size=    7680KiB time=00:01:28.72 bitrate= 709.1kbits/s dup=0 drop=50 speed=0.998x elapsed=0:01:28.93    frame= 2624 fps= 29 q=8.0 size=    7680KiB time=00:01:29.22 bitrate= 705.1kbits/s dup=0 drop=50 speed=0.998x elapsed=0:01:29.43    frame= 2639 fps= 29 q=8.0 size=    7680KiB time=00:01:29.72 bitrate= 701.2kbits/s dup=0 drop=50 speed=0.998x elapsed=0:01:29.93    frame= 2655 fps= 29 q=8.0 size=    7680KiB time=00:01:30.25 bitrate= 697.1kbits/s dup=0 drop=50 speed=0.998x elapsed=0:01:30.43    frame= 2669 fps= 29 q=8.0 size=    7680KiB time=00:01:30.72 bitrate= 693.5kbits/s dup=0 drop=50 speed=0.998x elapsed=0:01:30.93    frame= 2684 fps= 29 q=8.0 size=    7680KiB time=00:01:31.22 bitrate= 689.7kbits/s dup=0 drop=50 speed=0.998x elapsed=0:01:31.43    frame= 2700 fps= 29 q=8.0 size=    7680KiB time=00:01:31.75 bitrate= 685.7kbits/s dup=0 drop=50 speed=0.998x elapsed=0:01:31.93    frame= 2715 fps= 29 q=8.0 size=    7680KiB time=00:01:32.25 bitrate= 681.9kbits/s dup=0 drop=50 speed=0.998x elapsed=0:01:32.43    frame= 2729 fps= 29 q=8.0 size=    7680KiB time=00:01:32.72 bitrate= 678.5kbits/s dup=0 drop=50 speed=0.998x elapsed=0:01:32.93    frame= 2744 fps= 29 q=8.0 size=    7680KiB time=00:01:33.22 bitrate= 674.9kbits/s dup=0 drop=50 speed=0.998x elapsed=0:01:33.43    frame= 2759 fps= 29 q=8.0 size=    7936KiB time=00:01:33.72 bitrate= 693.6kbits/s dup=0 drop=50 speed=0.998x elapsed=0:01:33.94    frame= 2775 fps= 29 q=8.0 size=    7936KiB time=00:01:34.26 bitrate= 689.7kbits/s dup=0 drop=50 speed=0.998x elapsed=0:01:34.44    frame= 2790 fps= 29 q=12.0 size=    7936KiB time=00:01:34.76 bitrate= 686.1kbits/s dup=0 drop=50 speed=0.998x elapsed=0:01:34.94    frame= 2804 fps= 29 q=8.0 size=    8192KiB time=00:01:35.22 bitrate= 704.7kbits/s dup=0 drop=50 speed=0.998x elapsed=0:01:35.44    frame= 2819 fps= 29 q=8.0 size=    8192KiB time=00:01:35.72 bitrate= 701.0kbits/s dup=0 drop=50 speed=0.998x elapsed=0:01:35.94    frame= 2834 fps= 29 q=8.0 size=    8192KiB time=00:01:36.22 bitrate= 697.4kbits/s dup=0 drop=50 speed=0.998x elapsed=0:01:36.44    frame= 2848 fps= 29 q=16.0 size=    8192KiB time=00:01:36.69 bitrate= 694.0kbits/s dup=0 drop=50 speed=0.997x elapsed=0:01:36.94    frame= 2864 fps= 29 q=8.0 size=    8192KiB time=00:01:37.26 bitrate= 690.0kbits/s dup=0 drop=50 speed=0.998x elapsed=0:01:37.44    frame= 2879 fps= 29 q=8.0 size=    8192KiB time=00:01:37.73 bitrate= 686.7kbits/s dup=0 drop=50 speed=0.998x elapsed=0:01:37.94    frame= 2895 fps= 29 q=10.0 size=    8192KiB time=00:01:38.26 bitrate= 682.9kbits/s dup=0 drop=50 speed=0.998x elapsed=0:01:38.44    frame= 2910 fps= 29 q=8.0 size=    8448KiB time=00:01:38.76 bitrate= 700.7kbits/s dup=0 drop=50 speed=0.998x elapsed=0:01:38.94    frame= 2925 fps= 29 q=9.0 size=    8448KiB time=00:01:39.26 bitrate= 697.2kbits/s dup=0 drop=50 speed=0.998x elapsed=0:01:39.44    frame= 2940 fps= 29 q=12.0 size=    8448KiB time=00:01:39.76 bitrate= 693.7kbits/s dup=0 drop=50 speed=0.998x elapsed=0:01:39.94    frame= 2954 fps= 29 q=8.0 size=    8448KiB time=00:01:40.23 bitrate= 690.5kbits/s dup=0 drop=50 speed=0.998x elapsed=0:01:40.44    frame= 2969 fps= 29 q=8.0 size=    8448KiB time=00:01:40.73 bitrate= 687.0kbits/s dup=0 drop=50 speed=0.998x elapsed=0:01:40.94    frame= 2985 fps= 29 q=8.0 size=    8448KiB time=00:01:41.26 bitrate= 683.4kbits/s dup=0 drop=50 speed=0.998x elapsed=0:01:41.44    frame= 3000 fps= 29 q=12.0 size=    8448KiB time=00:01:41.76 bitrate= 680.0kbits/s dup=0 drop=50 speed=0.998x elapsed=0:01:41.94    frame= 3015 fps= 29 q=8.0 size=    8960KiB time=00:01:42.26 bitrate= 717.7kbits/s dup=0 drop=50 speed=0.998x elapsed=0:01:42.44    frame= 3030 fps= 29 q=8.0 size=    8960KiB time=00:01:42.76 bitrate= 714.2kbits/s dup=0 drop=50 speed=0.998x elapsed=0:01:42.94    frame= 3044 fps= 29 q=8.0 size=    8960KiB time=00:01:43.23 bitrate= 711.0kbits/s dup=0 drop=50 speed=0.998x elapsed=0:01:43.44    frame= 3059 fps= 29 q=8.0 size=    8960KiB time=00:01:43.73 bitrate= 707.6kbits/s dup=0 drop=50 speed=0.998x elapsed=0:01:43.94    frame= 3075 fps= 29 q=8.0 size=    8960KiB time=00:01:44.27 bitrate= 703.9kbits/s dup=0 drop=50 speed=0.998x elapsed=0:01:44.44    frame= 3090 fps= 29 q=8.0 size=    8960KiB time=00:01:44.77 bitrate= 700.6kbits/s dup=0 drop=50 speed=0.998x elapsed=0:01:44.95    frame= 3105 fps= 29 q=8.0 size=    8960KiB time=00:01:45.27 bitrate= 697.2kbits/s dup=0 drop=50 speed=0.998x elapsed=0:01:45.45    frame= 3120 fps= 29 q=8.0 size=    8960KiB time=00:01:45.77 bitrate= 693.9kbits/s dup=0 drop=50 speed=0.998x elapsed=0:01:45.95    frame= 3135 fps= 29 q=8.0 size=    8960KiB time=00:01:46.27 bitrate= 690.7kbits/s dup=0 drop=50 speed=0.998x elapsed=0:01:46.45    frame= 3149 fps= 29 q=8.0 size=    8960KiB time=00:01:46.73 bitrate= 687.7kbits/s dup=0 drop=50 speed=0.998x elapsed=0:01:46.95    frame= 3164 fps= 29 q=8.0 size=    8960KiB time=00:01:47.24 bitrate= 684.4kbits/s dup=0 drop=50 speed=0.998x elapsed=0:01:47.45    frame= 3180 fps= 29 q=8.0 size=    8960KiB time=00:01:47.77 bitrate= 681.1kbits/s dup=0 drop=50 speed=0.998x elapsed=0:01:47.95    frame= 3195 fps= 29 q=8.0 size=    8960KiB time=00:01:48.27 bitrate= 677.9kbits/s dup=0 drop=50 speed=0.998x elapsed=0:01:48.45    frame= 3209 fps= 29 q=8.0 size=    8960KiB time=00:01:48.74 bitrate= 675.0kbits/s dup=0 drop=50 speed=0.998x elapsed=0:01:48.95    frame= 3224 fps= 29 q=8.0 size=    8960KiB time=00:01:49.24 bitrate= 671.9kbits/s dup=0 drop=50 speed=0.998x elapsed=0:01:49.45    frame= 3240 fps= 29 q=8.0 size=    9216KiB time=00:01:49.77 bitrate= 687.7kbits/s dup=0 drop=50 speed=0.998x elapsed=0:01:49.95    frame= 3255 fps= 29 q=8.0 size=    9472KiB time=00:01:50.27 bitrate= 703.6kbits/s dup=0 drop=50 speed=0.998x elapsed=0:01:50.45    frame= 3269 fps= 29 q=8.0 size=    9472KiB time=00:01:50.74 bitrate= 700.7kbits/s dup=0 drop=50 speed=0.998x elapsed=0:01:50.95    frame= 3284 fps= 29 q=8.0 size=    9472KiB time=00:01:51.24 bitrate= 697.5kbits/s dup=0 drop=50 speed=0.998x elapsed=0:01:51.45    frame= 3300 fps= 29 q=8.0 size=    9472KiB time=00:01:51.77 bitrate= 694.2kbits/s dup=0 drop=50 speed=0.998x elapsed=0:01:51.95    frame= 3314 fps= 29 q=8.0 size=    9472KiB time=00:01:52.24 bitrate= 691.3kbits/s dup=0 drop=50 speed=0.998x elapsed=0:01:52.45    frame= 3329 fps= 29 q=11.0 size=    9472KiB time=00:01:52.74 bitrate= 688.2kbits/s dup=0 drop=50 speed=0.998x elapsed=0:01:52.95    frame= 3344 fps= 29 q=8.0 size=    9472KiB time=00:01:53.24 bitrate= 685.2kbits/s dup=0 drop=50 speed=0.998x elapsed=0:01:53.45    frame= 3359 fps= 29 q=8.0 size=    9472KiB time=00:01:53.74 bitrate= 682.2kbits/s dup=0 drop=50 speed=0.998x elapsed=0:01:53.95    frame= 3374 fps= 29 q=8.0 size=    9472KiB time=00:01:54.24 bitrate= 679.2kbits/s dup=0 drop=50 speed=0.998x elapsed=0:01:54.45    frame= 3390 fps= 29 q=8.0 size=    9472KiB time=00:01:54.78 bitrate= 676.0kbits/s dup=0 drop=50 speed=0.998x elapsed=0:01:54.95    frame= 3404 fps= 29 q=8.0 size=    9472KiB time=00:01:55.24 bitrate= 673.3kbits/s dup=0 drop=50 speed=0.998x elapsed=0:01:55.45    frame= 3419 fps= 29 q=8.0 size=    9472KiB time=00:01:55.74 bitrate= 670.4kbits/s dup=0 drop=50 speed=0.998x elapsed=0:01:55.95    frame= 3434 fps= 29 q=8.0 size=    9472KiB time=00:01:56.24 bitrate= 667.5kbits/s dup=0 drop=50 speed=0.998x elapsed=0:01:56.45    frame= 3449 fps= 29 q=8.0 size=    9472KiB time=00:01:56.74 bitrate= 664.6kbits/s dup=0 drop=50 speed=0.998x elapsed=0:01:56.95    frame= 3464 fps= 29 q=11.0 size=    9472KiB time=00:01:57.25 bitrate= 661.8kbits/s dup=0 drop=50 speed=0.998x elapsed=0:01:57.45    frame= 3479 fps= 29 q=8.0 size=    9728KiB time=00:01:57.75 bitrate= 676.8kbits/s dup=0 drop=50 speed=0.998x elapsed=0:01:57.95    frame= 3494 fps= 29 q=8.0 size=    9728KiB time=00:01:58.25 bitrate= 673.9kbits/s dup=0 drop=50 speed=0.998x elapsed=0:01:58.46    frame= 3509 fps= 29 q=8.0 size=    9984KiB time=00:01:58.75 bitrate= 688.7kbits/s dup=0 drop=50 speed=0.998x elapsed=0:01:58.96    frame= 3524 fps= 29 q=8.0 size=    9984KiB time=00:01:59.25 bitrate= 685.9kbits/s dup=0 drop=50 speed=0.998x elapsed=0:01:59.46    frame= 3540 fps= 30 q=9.0 size=    9984KiB time=00:01:59.78 bitrate= 682.8kbits/s dup=0 drop=50 speed=0.999x elapsed=0:01:59.96    frame= 3554 fps= 30 q=8.0 size=    9984KiB time=00:02:00.25 bitrate= 680.1kbits/s dup=0 drop=50 speed=0.998x elapsed=0:02:00.46    frame= 3569 fps= 30 q=8.0 size=    9984KiB time=00:02:00.75 bitrate= 677.3kbits/s dup=0 drop=50 speed=0.998x elapsed=0:02:00.96    frame= 3584 fps= 30 q=8.0 size=    9984KiB time=00:02:01.25 bitrate= 674.5kbits/s dup=0 drop=50 speed=0.998x elapsed=0:02:01.46    frame= 3599 fps= 30 q=8.0 size=    9984KiB time=00:02:01.75 bitrate= 671.8kbits/s dup=0 drop=50 speed=0.998x elapsed=0:02:01.96    frame= 3614 fps= 30 q=13.0 size=    9984KiB time=00:02:02.25 bitrate= 669.0kbits/s dup=0 drop=50 speed=0.998x elapsed=0:02:02.46    frame= 3629 fps= 30 q=8.0 size=   10240KiB time=00:02:02.75 bitrate= 683.4kbits/s dup=0 drop=50 speed=0.998x elapsed=0:02:02.96    frame= 3644 fps= 30 q=14.0 size=   10240KiB time=00:02:03.25 bitrate= 680.6kbits/s dup=0 drop=50 speed=0.998x elapsed=0:02:03.46    frame= 3659 fps= 30 q=8.0 size=   10240KiB time=00:02:03.75 bitrate= 677.8kbits/s dup=0 drop=50 speed=0.998x elapsed=0:02:03.96    frame= 3674 fps= 30 q=13.0 size=   10240KiB time=00:02:04.25 bitrate= 675.1kbits/s dup=0 drop=50 speed=0.998x elapsed=0:02:04.46    frame= 3690 fps= 30 q=8.0 size=   10496KiB time=00:02:04.75 bitrate= 689.2kbits/s dup=0 drop=50 speed=0.998x elapsed=0:02:04.96    frame= 3704 fps= 30 q=8.0 size=   10496KiB time=00:02:05.25 bitrate= 686.4kbits/s dup=0 drop=50 speed=0.998x elapsed=0:02:05.46    frame= 3719 fps= 30 q=8.0 size=   10496KiB time=00:02:05.75 bitrate= 683.7kbits/s dup=0 drop=50 speed=0.998x elapsed=0:02:05.96    frame= 3734 fps= 30 q=8.0 size=   10496KiB time=00:02:06.25 bitrate= 681.0kbits/s dup=0 drop=50 speed=0.998x elapsed=0:02:06.46    frame= 3749 fps= 30 q=14.0 size=   10496KiB time=00:02:06.75 bitrate= 678.3kbits/s dup=0 drop=50 speed=0.998x elapsed=0:02:06.96    frame= 3764 fps= 30 q=8.0 size=   11008KiB time=00:02:07.26 bitrate= 708.6kbits/s dup=0 drop=50 speed=0.998x elapsed=0:02:07.46    frame= 3779 fps= 30 q=8.0 size=   11008KiB time=00:02:07.76 bitrate= 705.8kbits/s dup=0 drop=50 speed=0.998x elapsed=0:02:07.96    frame= 3794 fps= 30 q=8.0 size=   11008KiB time=00:02:08.26 bitrate= 703.1kbits/s dup=0 drop=50 speed=0.998x elapsed=0:02:08.46    frame= 3809 fps= 30 q=8.0 size=   11008KiB time=00:02:08.76 bitrate= 700.3kbits/s dup=0 drop=50 speed=0.998x elapsed=0:02:08.96    frame= 3824 fps= 30 q=8.0 size=   11008KiB time=00:02:09.26 bitrate= 697.6kbits/s dup=0 drop=50 speed=0.998x elapsed=0:02:09.46    frame= 3839 fps= 30 q=8.0 size=   11008KiB time=00:02:09.76 bitrate= 694.9kbits/s dup=0 drop=50 speed=0.998x elapsed=0:02:09.96    frame= 3854 fps= 30 q=8.0 size=   11008KiB time=00:02:10.26 bitrate= 692.3kbits/s dup=0 drop=50 speed=0.998x elapsed=0:02:10.46    frame= 3869 fps= 30 q=8.0 size=   11008KiB time=00:02:10.76 bitrate= 689.6kbits/s dup=0 drop=50 speed=0.998x elapsed=0:02:10.97    frame= 3884 fps= 30 q=8.0 size=   11008KiB time=00:02:11.26 bitrate= 687.0kbits/s dup=0 drop=50 speed=0.998x elapsed=0:02:11.47    frame= 3900 fps= 30 q=14.0 size=   11008KiB time=00:02:11.79 bitrate= 684.2kbits/s dup=0 drop=50 speed=0.999x elapsed=0:02:11.97    frame= 3914 fps= 30 q=8.0 size=   11008KiB time=00:02:12.26 bitrate= 681.8kbits/s dup=0 drop=50 speed=0.998x elapsed=0:02:12.47    frame= 3929 fps= 30 q=8.0 size=   11008KiB time=00:02:12.76 bitrate= 679.2kbits/s dup=0 drop=50 speed=0.998x elapsed=0:02:12.97    frame= 3944 fps= 30 q=8.0 size=   11008KiB time=00:02:13.26 bitrate= 676.7kbits/s dup=0 drop=50 speed=0.998x elapsed=0:02:13.47    frame= 3959 fps= 30 q=16.0 size=   11008KiB time=00:02:13.76 bitrate= 674.1kbits/s dup=0 drop=50 speed=0.998x elapsed=0:02:13.98    frame= 3975 fps= 30 q=8.0 size=   11264KiB time=00:02:14.30 bitrate= 687.1kbits/s dup=0 drop=50 speed=0.999x elapsed=0:02:14.48    frame= 3990 fps= 30 q=16.0 size=   11264KiB time=00:02:14.80 bitrate= 684.5kbits/s dup=0 drop=50 speed=0.999x elapsed=0:02:14.98    frame= 4005 fps= 30 q=8.0 size=   11776KiB time=00:02:15.30 bitrate= 713.0kbits/s dup=0 drop=50 speed=0.999x elapsed=0:02:15.48    frame= 4019 fps= 30 q=8.0 size=   11776KiB time=00:02:15.76 bitrate= 710.5kbits/s dup=0 drop=50 speed=0.998x elapsed=0:02:15.98    frame= 4035 fps= 30 q=8.0 size=   11776KiB time=00:02:16.30 bitrate= 707.8kbits/s dup=0 drop=50 speed=0.999x elapsed=0:02:16.48    frame= 4049 fps= 30 q=8.0 size=   11776KiB time=00:02:16.76 bitrate= 705.3kbits/s dup=0 drop=50 speed=0.998x elapsed=0:02:16.98    frame= 4065 fps= 30 q=8.0 size=   11776KiB time=00:02:17.30 bitrate= 702.6kbits/s dup=0 drop=50 speed=0.999x elapsed=0:02:17.48    frame= 4080 fps= 30 q=8.0 size=   11776KiB time=00:02:17.80 bitrate= 700.0kbits/s dup=0 drop=50 speed=0.999x elapsed=0:02:17.98    frame= 4095 fps= 30 q=8.0 size=   11776KiB time=00:02:18.30 bitrate= 697.5kbits/s dup=0 drop=50 speed=0.999x elapsed=0:02:18.48    frame= 4109 fps= 30 q=11.0 size=   11776KiB time=00:02:18.77 bitrate= 695.2kbits/s dup=0 drop=50 speed=0.998x elapsed=0:02:18.98    frame= 4125 fps= 30 q=8.0 size=   11776KiB time=00:02:19.30 bitrate= 692.5kbits/s dup=0 drop=50 speed=0.999x elapsed=0:02:19.48    frame= 4140 fps= 30 q=8.0 size=   11776KiB time=00:02:19.80 bitrate= 690.0kbits/s dup=0 drop=50 speed=0.999x elapsed=0:02:19.98    frame= 4155 fps= 30 q=8.0 size=   11776KiB time=00:02:20.30 bitrate= 687.6kbits/s dup=0 drop=50 speed=0.999x elapsed=0:02:20.48    frame= 4169 fps= 30 q=8.0 size=   11776KiB time=00:02:20.77 bitrate= 685.3kbits/s dup=0 drop=50 speed=0.998x elapsed=0:02:20.98    frame= 4185 fps= 30 q=16.0 size=   11776KiB time=00:02:21.30 bitrate= 682.7kbits/s dup=0 drop=50 speed=0.999x elapsed=0:02:21.48    frame= 4199 fps= 30 q=8.0 size=   11776KiB time=00:02:21.77 bitrate= 680.4kbits/s dup=0 drop=50 speed=0.999x elapsed=0:02:21.98    frame= 4214 fps= 30 q=8.0 size=   12032KiB time=00:02:22.27 bitrate= 692.8kbits/s dup=0 drop=50 speed=0.998x elapsed=0:02:22.49    frame= 4230 fps= 30 q=8.0 size=   12032KiB time=00:02:22.80 bitrate= 690.2kbits/s dup=0 drop=50 speed=0.999x elapsed=0:02:22.99    frame= 4245 fps= 30 q=8.0 size=   12032KiB time=00:02:23.30 bitrate= 687.8kbits/s dup=0 drop=50 speed=0.999x elapsed=0:02:23.49    frame= 4260 fps= 30 q=8.0 size=   12544KiB time=00:02:23.81 bitrate= 714.6kbits/s dup=0 drop=50 speed=0.999x elapsed=0:02:23.99    frame= 4275 fps= 30 q=8.0 size=   12544KiB time=00:02:24.31 bitrate= 712.1kbits/s dup=0 drop=50 speed=0.999x elapsed=0:02:24.49    frame= 4290 fps= 30 q=8.0 size=   12544KiB time=00:02:24.81 bitrate= 709.6kbits/s dup=0 drop=50 speed=0.999x elapsed=0:02:24.99    frame= 4305 fps= 30 q=8.0 size=   12544KiB time=00:02:25.31 bitrate= 707.2kbits/s dup=0 drop=50 speed=0.999x elapsed=0:02:25.49    frame= 4319 fps= 30 q=8.0 size=   12544KiB time=00:02:25.77 bitrate= 704.9kbits/s dup=0 drop=50 speed=0.999x elapsed=0:02:25.99    frame= 4335 fps= 30 q=8.0 size=   12544KiB time=00:02:26.31 bitrate= 702.3kbits/s dup=0 drop=50 speed=0.999x elapsed=0:02:26.49    frame= 4349 fps= 30 q=8.0 size=   12544KiB time=00:02:26.77 bitrate= 700.1kbits/s dup=0 drop=50 speed=0.999x elapsed=0:02:26.99    frame= 4365 fps= 30 q=8.0 size=   12544KiB time=00:02:27.31 bitrate= 697.6kbits/s dup=0 drop=50 speed=0.999x elapsed=0:02:27.49    frame= 4379 fps= 30 q=8.0 size=   12544KiB time=00:02:27.78 bitrate= 695.4kbits/s dup=0 drop=50 speed=0.999x elapsed=0:02:27.99    frame= 4394 fps= 30 q=8.0 size=   12544KiB time=00:02:28.28 bitrate= 693.0kbits/s dup=0 drop=50 speed=0.999x elapsed=0:02:28.49    frame= 4409 fps= 30 q=8.0 size=   12544KiB time=00:02:28.78 bitrate= 690.7kbits/s dup=0 drop=50 speed=0.999x elapsed=0:02:28.99    frame= 4425 fps= 30 q=8.0 size=   12544KiB time=00:02:29.31 bitrate= 688.2kbits/s dup=0 drop=50 speed=0.999x elapsed=0:02:29.49    frame= 4440 fps= 30 q=9.0 size=   12544KiB time=00:02:29.81 bitrate= 685.9kbits/s dup=0 drop=50 speed=0.999x elapsed=0:02:29.99    frame= 4454 fps= 30 q=8.0 size=   12544KiB time=00:02:30.31 bitrate= 683.6kbits/s dup=0 drop=50 speed=0.999x elapsed=0:02:30.49    frame= 4469 fps= 30 q=8.0 size=   12544KiB time=00:02:30.78 bitrate= 681.5kbits/s dup=0 drop=50 speed=0.999x elapsed=0:02:30.99    frame= 4484 fps= 30 q=8.0 size=   12544KiB time=00:02:31.28 bitrate= 679.3kbits/s dup=0 drop=50 speed=0.999x elapsed=0:02:31.49    frame= 4499 fps= 30 q=14.0 size=   12544KiB time=00:02:31.78 bitrate= 677.0kbits/s dup=0 drop=50 speed=0.999x elapsed=0:02:32.00    frame= 4515 fps= 30 q=8.0 size=   13056KiB time=00:02:32.31 bitrate= 702.2kbits/s dup=0 drop=50 speed=0.999x elapsed=0:02:32.50    frame= 4530 fps= 30 q=11.0 size=   13056KiB time=00:02:32.81 bitrate= 699.9kbits/s dup=0 drop=50 speed=0.999x elapsed=0:02:33.00    frame= 4545 fps= 30 q=8.0 size=   13312KiB time=00:02:33.31 bitrate= 711.3kbits/s dup=0 drop=50 speed=0.999x elapsed=0:02:33.50    frame= 4560 fps= 30 q=8.0 size=   13312KiB time=00:02:33.82 bitrate= 709.0kbits/s dup=0 drop=50 speed=0.999x elapsed=0:02:34.00    frame= 4575 fps= 30 q=11.0 size=   13312KiB time=00:02:34.32 bitrate= 706.7kbits/s dup=0 drop=50 speed=0.999x elapsed=0:02:34.50    frame= 4590 fps= 30 q=13.0 size=   13312KiB time=00:02:34.82 bitrate= 704.4kbits/s dup=0 drop=50 speed=0.999x elapsed=0:02:35.00    frame= 4605 fps= 30 q=8.0 size=   13312KiB time=00:02:35.32 bitrate= 702.1kbits/s dup=0 drop=50 speed=0.999x elapsed=0:02:35.50    frame= 4620 fps= 30 q=10.0 size=   13312KiB time=00:02:35.82 bitrate= 699.9kbits/s dup=0 drop=50 speed=0.999x elapsed=0:02:36.00    frame= 4635 fps= 30 q=8.0 size=   13312KiB time=00:02:36.32 bitrate= 697.6kbits/s dup=0 drop=50 speed=0.999x elapsed=0:02:36.50    frame= 4649 fps= 30 q=8.0 size=   13312KiB time=00:02:36.78 bitrate= 695.5kbits/s dup=0 drop=50 speed=0.999x elapsed=0:02:37.00    frame= 4665 fps= 30 q=8.0 size=   13312KiB time=00:02:37.32 bitrate= 693.2kbits/s dup=0 drop=50 speed=0.999x elapsed=0:02:37.50    frame= 4680 fps= 30 q=8.0 size=   13312KiB time=00:02:37.82 bitrate= 691.0kbits/s dup=0 drop=50 speed=0.999x elapsed=0:02:38.00    frame= 4695 fps= 30 q=8.0 size=   13312KiB time=00:02:38.32 bitrate= 688.8kbits/s dup=0 drop=50 speed=0.999x elapsed=0:02:38.50    frame= 4710 fps= 30 q=8.0 size=   13312KiB time=00:02:38.82 bitrate= 686.6kbits/s dup=0 drop=50 speed=0.999x elapsed=0:02:39.00    frame= 4724 fps= 30 q=8.0 size=   13312KiB time=00:02:39.29 bitrate= 684.6kbits/s dup=0 drop=50 speed=0.999x elapsed=0:02:39.50    frame= 4740 fps= 30 q=8.0 size=   13312KiB time=00:02:39.82 bitrate= 682.3kbits/s dup=0 drop=50 speed=0.999x elapsed=0:02:40.00    frame= 4754 fps= 30 q=8.0 size=   13824KiB time=00:02:40.29 bitrate= 706.5kbits/s dup=0 drop=50 speed=0.999x elapsed=0:02:40.50    frame= 4770 fps= 30 q=8.0 size=   13824KiB time=00:02:40.82 bitrate= 704.2kbits/s dup=0 drop=50 speed=0.999x elapsed=0:02:41.00    frame= 4785 fps= 30 q=8.0 size=   13824KiB time=00:02:41.32 bitrate= 702.0kbits/s dup=0 drop=50 speed=0.999x elapsed=0:02:41.50    frame= 4800 fps= 30 q=8.0 size=   13824KiB time=00:02:41.82 bitrate= 699.8kbits/s dup=0 drop=50 speed=0.999x elapsed=0:02:42.00    frame= 4815 fps= 30 q=8.0 size=   13824KiB time=00:02:42.32 bitrate= 697.6kbits/s dup=0 drop=50 speed=0.999x elapsed=0:02:42.50    frame= 4829 fps= 30 q=8.0 size=   13824KiB time=00:02:42.79 bitrate= 695.6kbits/s dup=0 drop=50 speed=0.999x elapsed=0:02:43.00    frame= 4845 fps= 30 q=8.0 size=   13824KiB time=00:02:43.32 bitrate= 693.4kbits/s dup=0 drop=50 speed=0.999x elapsed=0:02:43.50    frame= 4859 fps= 30 q=8.0 size=   13824KiB time=00:02:43.79 bitrate= 691.4kbits/s dup=0 drop=50 speed=0.999x elapsed=0:02:44.00    frame= 4874 fps= 30 q=8.0 size=   13824KiB time=00:02:44.29 bitrate= 689.3kbits/s dup=0 drop=50 speed=0.999x elapsed=0:02:44.50    frame= 4889 fps= 30 q=8.0 size=   13824KiB time=00:02:44.79 bitrate= 687.2kbits/s dup=0 drop=50 speed=0.999x elapsed=0:02:45.01    frame= 4905 fps= 30 q=8.0 size=   13824KiB time=00:02:45.33 bitrate= 685.0kbits/s dup=0 drop=50 speed=0.999x elapsed=0:02:45.51    frame= 4919 fps= 30 q=8.0 size=   13824KiB time=00:02:45.79 bitrate= 683.0kbits/s dup=0 drop=50 speed=0.999x elapsed=0:02:46.01    frame= 4935 fps= 30 q=8.0 size=   13824KiB time=00:02:46.33 bitrate= 680.8kbits/s dup=0 drop=50 speed=0.999x elapsed=0:02:46.51    frame= 4949 fps= 30 q=8.0 size=   13824KiB time=00:02:46.79 bitrate= 678.9kbits/s dup=0 drop=50 speed=0.999x elapsed=0:02:47.01    frame= 4964 fps= 30 q=8.0 size=   13824KiB time=00:02:47.30 bitrate= 676.9kbits/s dup=0 drop=50 speed=0.999x elapsed=0:02:47.51    frame= 4979 fps= 30 q=9.0 size=   13824KiB time=00:02:47.80 bitrate= 674.9kbits/s dup=0 drop=50 speed=0.999x elapsed=0:02:48.01    frame= 4994 fps= 30 q=8.0 size=   13824KiB time=00:02:48.30 bitrate= 672.9kbits/s dup=0 drop=50 speed=0.999x elapsed=0:02:48.51    frame= 5009 fps= 30 q=8.0 size=   14336KiB time=00:02:48.80 bitrate= 695.7kbits/s dup=0 drop=50 speed=0.999x elapsed=0:02:49.01    frame= 5024 fps= 30 q=8.0 size=   14336KiB time=00:02:49.30 bitrate= 693.7kbits/s dup=0 drop=50 speed=0.999x elapsed=0:02:49.51    frame= 5040 fps= 30 q=8.0 size=   14336KiB time=00:02:49.83 bitrate= 691.5kbits/s dup=0 drop=50 speed=0.999x elapsed=0:02:50.01    frame= 5055 fps= 30 q=8.0 size=   14336KiB time=00:02:50.33 bitrate= 689.5kbits/s dup=0 drop=50 speed=0.999x elapsed=0:02:50.51    